<svg width="114" height="114" fill="none" xmlns="http://www.w3.org/2000/svg"><g filter="url(#filter0_d)"><path d="M84.5 101h-55C20.387 101 13 93.614 13 84.5v-55C13 20.387 20.387 13 29.5 13h55c9.114 0 16.5 7.387 16.5 16.5v55c0 9.114-7.386 16.5-16.5 16.5z" fill="#FFE6E2"/><path d="M73.5 36.834h-33a5.506 5.506 0 00-5.5 5.5v29.334c0 3.034 2.467 5.5 5.5 5.5h33c3.033 0 5.5-2.466 5.5-5.5V42.334c0-3.033-2.467-5.5-5.5-5.5zm0 36.666h-33a1.836 1.836 0 01-1.834-1.834V46h36.666v25.666A1.831 1.831 0 0173.5 73.5z" fill="#FC573B"/><path d="M69.81 55.419a.91.91 0 00-.432-.586l-5.5-3.21a.937.937 0 00-.462-.123H59.75a.915.915 0 00-.916.916 1.835 1.835 0 01-3.669 0 .916.916 0 00-.915-.916h-3.666a.912.912 0 00-.462.127l-5.5 3.209a.92.92 0 00-.431.586.903.903 0 00.132.715l2.75 4.124a.934.934 0 001.053.363l1.543-.517v8.811c0 .506.41.916.915.916H63.42c.506 0 .915-.41.915-.916v-8.81l1.543.517a.925.925 0 001.053-.364l2.75-4.125a.92.92 0 00.13-.717z" fill="#FD907E"/></g><defs><filter id="filter0_d" x="0" y="0" width="114" height="114" filterUnits="userSpaceOnUse" color-interpolation-filters="sRGB"><feFlood flood-opacity="0" result="BackgroundImageFix"/><feColorMatrix in="SourceAlpha" values="0 0 0 0 0 0 0 0 0 0 0 0 0 0 0 0 0 0 127 0"/><feMorphology radius="12" in="SourceAlpha" result="effect1_dropShadow"/><feOffset/><feGaussianBlur stdDeviation="12.5"/><feColorMatrix values="0 0 0 0 0.988235 0 0 0 0 0.341176 0 0 0 0 0.231373 0 0 0 0.15 0"/><feBlend in2="BackgroundImageFix" result="effect1_dropShadow"/><feBlend in="SourceGraphic" in2="effect1_dropShadow" result="shape"/></filter></defs></svg>