<svg width="24" height="24" fill="none" xmlns="http://www.w3.org/2000/svg"><path d="M17.02 6.929a.938.938 0 00-1.036-.194L5.578 11.28a.938.938 0 00.039 1.735l3.876 1.49 1.473 3.83c.231.6.739.648.894.648h.003a.938.938 0 00.857-.566l4.5-10.454a.938.938 0 00-.2-1.035zm-5.112 8.633l-.814-2.117a.937.937 0 00-.539-.539l-2.134-.82 6.139-2.683-2.652 6.16z" fill="#fff"/><path d="M20.485 3.515A11.922 11.922 0 0012 0a11.922 11.922 0 00-8.485 3.515A11.922 11.922 0 000 12c0 3.205 1.248 6.219 3.515 8.485A11.922 11.922 0 0012 24c2.194 0 4.341-.598 6.21-1.73a.938.938 0 00-.972-1.603A10.106 10.106 0 0112 22.125C6.417 22.125 1.875 17.583 1.875 12S6.417 1.875 12 1.875 22.125 6.417 22.125 12c0 1.996-.594 3.94-1.717 5.62a.937.937 0 101.559 1.042A11.952 11.952 0 0024 12c0-3.205-1.248-6.219-3.515-8.485z" fill="#fff"/></svg>