<svg width="24" height="24" fill="none" xmlns="http://www.w3.org/2000/svg"><path d="M23.063 13.664c.517 0 .937-.42.937-.937V6.586a3.754 3.754 0 00-3.75-3.75H3.75A3.754 3.754 0 000 6.586v10.828a3.754 3.754 0 003.75 3.75h16.5a3.754 3.754 0 003.75-3.75.937.937 0 10-1.875 0 1.877 1.877 0 01-1.875 1.875H3.75a1.877 1.877 0 01-1.875-1.875V6.784l8.145 5.065c.61.38 1.295.57 1.98.57s1.37-.19 1.98-.57l8.145-5.064v5.942c0 .517.42.937.938.937zM12.99 10.257c-.61.38-1.37.38-1.98 0L2.657 5.063a1.865 1.865 0 011.093-.352h16.5c.407 0 .785.13 1.093.352l-8.353 5.194z" fill="#fff"/></svg>