<svg width="40" height="40" fill="none" xmlns="http://www.w3.org/2000/svg"><g clip-path="url(#clip0)"><path d="M7.304 0A7.288 7.288 0 000 7.304v25.392A7.288 7.288 0 007.304 40h13.762V24.363h-4.135v-5.63h4.135v-4.81c0-3.78 2.443-7.25 8.072-7.25 2.278 0 3.963.22 3.963.22l-.132 5.257s-1.719-.016-3.594-.016c-2.03 0-2.355.935-2.355 2.487v4.112h6.11l-.266 5.63H27.02V40h5.676A7.288 7.288 0 0040 32.696V7.304A7.288 7.288 0 0032.696 0H7.304z" fill="#fff"/></g><defs><clipPath id="clip0"><path fill="#fff" d="M0 0h40v40H0z"/></clipPath></defs></svg>