<svg width="24" height="24" fill="none" xmlns="http://www.w3.org/2000/svg"><g clip-path="url(#clip0)"><path d="M23.998 19.338a3.55 3.55 0 00-1.09-2.439c-1.309-1.263-2.405-1.991-3.451-2.294-1.442-.416-2.777-.037-3.968 1.126l-.005.005-1.268 1.258c-.792-.446-2.332-1.426-3.996-3.09l-.124-.124c-1.664-1.664-2.645-3.205-3.09-3.996l1.257-1.268a.682.682 0 00.006-.005C9.432 7.32 9.81 5.985 9.394 4.543 9.092 3.497 8.364 2.4 7.101 1.091A3.55 3.55 0 004.66.002a3.55 3.55 0 00-2.511.91l-.027.025a.981.981 0 00-.037.035C.71 2.348-.01 4.274 0 6.543c.02 3.854 2.138 8.262 5.666 11.79a22.852 22.852 0 002.248 1.958.937.937 0 101.14-1.488 20.992 20.992 0 01-2.062-1.795c-3.187-3.187-5.1-7.103-5.117-10.474-.009-1.747.517-3.206 1.52-4.22l.007-.006a1.686 1.686 0 012.35.085C8.177 4.91 8.001 6.098 6.93 7.198l-1.738 1.75a.938.938 0 00-.19 1.043c.043.099 1.11 2.457 3.769 5.115l.123.123c2.658 2.658 5.016 3.726 5.115 3.77a.937.937 0 001.042-.191l1.751-1.738c1.1-1.073 2.288-1.248 4.805 1.179.66.635.697 1.667.085 2.348l-.006.008c-1.006.995-2.449 1.52-4.177 1.52h-.043c-1.381-.007-2.981-.386-4.626-1.095a.937.937 0 10-.742 1.721c1.9.82 3.704 1.24 5.359 1.249h.052c2.246 0 4.154-.72 5.52-2.086l.034-.037.024-.027a3.55 3.55 0 00.91-2.512z" fill="#EC4B40"/></g><defs><clipPath id="clip0"><path fill="#fff" d="M0 0h24v24H0z"/></clipPath></defs></svg>