<svg width="114" height="114" fill="none" xmlns="http://www.w3.org/2000/svg"><g filter="url(#filter0_d)"><path d="M84.5 101h-55C20.387 101 13 93.614 13 84.5v-55C13 20.387 20.387 13 29.5 13h55c9.114 0 16.5 7.387 16.5 16.5v55c0 9.114-7.386 16.5-16.5 16.5z" fill="#F5E6FE"/><path d="M64.461 57.938l.547-1.205c.308-.68.322-1.463.036-2.153a2.702 2.702 0 00-1.545-1.49l-1.208-.438-.464-1.235a2.707 2.707 0 00-1.494-1.545 2.714 2.714 0 00-2.153.036l-1.18.539-1.182-.54a2.713 2.713 0 00-2.154-.035 2.701 2.701 0 00-1.49 1.545l-.437 1.208-1.235.464a2.706 2.706 0 00-1.546 1.494 2.714 2.714 0 00.036 2.153l.547 1.16-.547 1.205a2.713 2.713 0 00-.035 2.153c.285.688.85 1.232 1.545 1.49l.998.358v14.523c0 .542.32 1.031.812 1.254a1.372 1.372 0 001.476-.226L57 75.8l3.212 2.854a1.37 1.37 0 001.477.226c.495-.223.811-.712.811-1.254V63.119l.998-.374a2.706 2.706 0 001.546-1.494 2.714 2.714 0 00-.036-2.153l-.547-1.16zM57.913 72.93a1.372 1.372 0 00-1.826 0l-1.837 1.633v-8.44a2.696 2.696 0 001.568-.198l1.16-.547 1.205.547c.355.16.734.242 1.116.242.154 0 .3-.063.451-.09v8.486l-1.837-1.633z" fill="#D9A4FC"/><path d="M73.5 35h-33c-3.025 0-5.5 2.475-5.5 5.5v29.334c0 3.025 2.475 5.5 5.5 5.5h7.334v-3.666H40.5a1.839 1.839 0 01-1.834-1.834V44.168h36.668v25.666a1.84 1.84 0 01-1.834 1.834h-7.334v3.666H73.5c3.025 0 5.5-2.475 5.5-5.5V40.5c0-3.025-2.475-5.5-5.5-5.5z" fill="#BE63F9"/></g><defs><filter id="filter0_d" x="0" y="0" width="114" height="114" filterUnits="userSpaceOnUse" color-interpolation-filters="sRGB"><feFlood flood-opacity="0" result="BackgroundImageFix"/><feColorMatrix in="SourceAlpha" values="0 0 0 0 0 0 0 0 0 0 0 0 0 0 0 0 0 0 127 0"/><feMorphology radius="12" in="SourceAlpha" result="effect1_dropShadow"/><feOffset/><feGaussianBlur stdDeviation="12.5"/><feColorMatrix values="0 0 0 0 0.745098 0 0 0 0 0.388235 0 0 0 0 0.976471 0 0 0 0.15 0"/><feBlend in2="BackgroundImageFix" result="effect1_dropShadow"/><feBlend in="SourceGraphic" in2="effect1_dropShadow" result="shape"/></filter></defs></svg>