<svg width="114" height="115" fill="none" xmlns="http://www.w3.org/2000/svg"><g clip-path="url(#clip0)" filter="url(#filter0_d)"><path d="M84.5 101.5h-55C20.387 101.5 13 94.114 13 85V30c0-9.113 7.387-16.5 16.5-16.5h55c9.114 0 16.5 7.387 16.5 16.5v55c0 9.114-7.386 16.5-16.5 16.5z" fill="#E3F8FA"/><path d="M44.44 69.416h-5.535l-.22 1.119c-.074.404.036.825.294 1.136.256.31.66.495 1.065.495h4.199a5.02 5.02 0 01-.074-.916c-.003-.64.09-1.246.272-1.834zM64.02 50.68a1.327 1.327 0 00-1.063-.514h-19.25c-.66 0-1.23.475-1.356 1.119l-.127.715h4.235c1.76 0 3.21 1.45 3.21 3.21 0 1.173-.641 2.18-1.576 2.75.935.568 1.576 1.575 1.576 2.75 0 1.173-.641 2.18-1.576 2.75.57.348 1.026.86 1.3 1.484A6.423 6.423 0 0157 71.25a5 5 0 01-.074.916h1.906c.64 0 1.21-.46 1.339-1.081l4.125-19.25c.093-.404 0-.825-.275-1.155zm6.27 4.986h-3.924c-.66 0-1.21.459-1.355 1.08l-2.934 13.75c-.091.405 0 .825.275 1.155.255.33.64.515 1.064.515h.99a5.02 5.02 0 01-.075-.916c0-3.54 2.88-6.416 6.416-6.416a6.425 6.425 0 016.416 6.416c0 .2 0 .385-.036.586.24-.185.404-.44.46-.751l1.374-6.416c.02-.093.039-.203.039-.294 0-4.804-3.905-8.71-8.71-8.71z" fill="#26C6DA"/><path d="M46.459 56.584H40.04a1.376 1.376 0 010-2.75h6.416a1.376 1.376 0 01.003 2.75zm.001 5.5h-8.25a1.376 1.376 0 010-2.75h8.25a1.376 1.376 0 010 2.75zm0 5.5H36.374a1.376 1.376 0 010-2.75h10.084a1.376 1.376 0 010 2.75zm24.29 8.25a4.588 4.588 0 01-4.585-4.584 4.588 4.588 0 014.585-4.584 4.588 4.588 0 014.584 4.584 4.588 4.588 0 01-4.584 4.584zm-20.166 0A4.59 4.59 0 0146 71.25a4.59 4.59 0 014.584-4.584 4.588 4.588 0 014.584 4.584 4.588 4.588 0 01-4.584 4.584z" fill="#8CE1EB"/></g><defs><clipPath id="clip0"><path fill="#fff" transform="translate(13 13.5)" d="M0 0h88v88H0z"/></clipPath><filter id="filter0_d" x="0" y=".5" width="114" height="114" filterUnits="userSpaceOnUse" color-interpolation-filters="sRGB"><feFlood flood-opacity="0" result="BackgroundImageFix"/><feColorMatrix in="SourceAlpha" values="0 0 0 0 0 0 0 0 0 0 0 0 0 0 0 0 0 0 127 0"/><feMorphology radius="12" in="SourceAlpha" result="effect1_dropShadow"/><feOffset/><feGaussianBlur stdDeviation="12.5"/><feColorMatrix values="0 0 0 0 0.14902 0 0 0 0 0.776471 0 0 0 0 0.854902 0 0 0 0.15 0"/><feBlend in2="BackgroundImageFix" result="effect1_dropShadow"/><feBlend in="SourceGraphic" in2="effect1_dropShadow" result="shape"/></filter></defs></svg>