<svg width="114" height="114" fill="none" xmlns="http://www.w3.org/2000/svg"><g filter="url(#filter0_d)"><path d="M84.5 101h-55C20.387 101 13 93.614 13 84.5v-55C13 20.387 20.387 13 29.5 13h55c9.114 0 16.5 7.387 16.5 16.5v55c0 9.114-7.386 16.5-16.5 16.5z" fill="#FFF9DD"/><path d="M39.994 66.22c-1.963 1.962-4.656 10.828-4.955 11.831a.918.918 0 001.144 1.141c1.003-.3 9.867-2.994 11.83-4.955a5.67 5.67 0 00-8.019-8.016zm38.899-7.34a1.374 1.374 0 00-1.276-.838l-3.21.025-.024-3.21a1.376 1.376 0 00-2.354-.956l-4.549 4.617c-.255.258-.398.61-.396.976l.03 4.032c-.016.016-.038.022-.055.038l-5.458 5.541a1.374 1.374 0 00.99 2.34c.352-.002.701-.14.968-.41l5.459-5.54c.016-.017.022-.039.035-.055l4.032-.03a1.38 1.38 0 00.968-.41l4.548-4.618c.394-.396.506-.987.292-1.501z" fill="#FFE777"/><path d="M62.483 57.729c.71 0 1.373.063 2.038.168.19-.641.517-1.235.998-1.725l4.549-4.625a4.147 4.147 0 012.94-1.232c.53 0 1.05.102 1.545.3.174.068.311.186.468.277 2.612-4.859 4.089-10.24 3.974-15.216a.917.917 0 00-.897-.896c-8.591-.154-18.386 4.342-24.588 11.322a23.263 23.263 0 00-15.947 6.8.916.916 0 00.514 1.562l7.068 1.015-.872.98a.92.92 0 00.036 1.261l7.293 7.307c1.806-4.246 5.992-7.246 10.882-7.298zm.683-13.593a4.583 4.583 0 016.481 0 4.606 4.606 0 010 6.492 4.572 4.572 0 01-3.242 1.342 4.573 4.573 0 01-3.242-1.342 4.608 4.608 0 01.003-6.492z" fill="#FFD200"/><path d="M71.534 68.173h-1.3l-2.182 2.22a5.45 5.45 0 01-5.426 5.17c-3.044.035-5.519-2.42-5.554-5.445a5.516 5.516 0 015.134-5.536l2.145-2.18v-1.34a10.18 10.18 0 00-1.834-.165c-5.06.055-9.15 4.18-9.111 9.24.055 5.06 4.199 9.13 9.24 9.094 5.06-.036 9.15-4.18 9.094-9.22a8.792 8.792 0 00-.206-1.838z" fill="#FFE777"/></g><defs><filter id="filter0_d" x="0" y="0" width="114" height="114" filterUnits="userSpaceOnUse" color-interpolation-filters="sRGB"><feFlood flood-opacity="0" result="BackgroundImageFix"/><feColorMatrix in="SourceAlpha" values="0 0 0 0 0 0 0 0 0 0 0 0 0 0 0 0 0 0 127 0"/><feMorphology radius="12" in="SourceAlpha" result="effect1_dropShadow"/><feOffset/><feGaussianBlur stdDeviation="12.5"/><feColorMatrix values="0 0 0 0 1 0 0 0 0 0.823529 0 0 0 0 0 0 0 0 0.15 0"/><feBlend in2="BackgroundImageFix" result="effect1_dropShadow"/><feBlend in="SourceGraphic" in2="effect1_dropShadow" result="shape"/></filter></defs></svg>